# xmcd CD database file
#
# Track frame offsets:
#	150
#	18387
#	43447
#	61987
#	82232
#	100762
#	122955
#	145847
#	165657
#	188592
#	207395
#
# Disc length: 3042 seconds
#
# Revision: 0
# Processed by: cddbd v1.5.1PL0 Copyright (c) Steve Scherf et al.
# Submitted via: CDex 1.51
#
DISCID=9e0be00b
DTITLE=SOON - Midnight Sun
DYEAR=1999
DGENRE=Rock
TTITLE0=ゴッド セイブ マイ ライフ
TTITLE1=白夜　- everyday I call you - (Album Version)
TTITLE2=Missing
TTITLE3=CARDINAL
TTITLE4=Within love, without love
TTITLE5=かげろう
TTITLE6=ハピネス アンド ヴァイオリン
TTITLE7=7days and 7nights
TTITLE8=Rainstorm
TTITLE9=Dreamtime
TTITLE10=Walk into the summer
EXTD=YEAR: 1999
EXTT0=
EXTT1=
EXTT2=
EXTT3=
EXTT4=
EXTT5=
EXTT6=
EXTT7=
EXTT8=
EXTT9=
EXTT10=
PLAYORDER=
